# File created by Blade
# Date/Time:  Thu Jan 22 19:01:15 2015
# Frame Rate: 120.000 fps
#------------------------------------------------------
:FULLY-SPECIFIED
:DEGREES
2267
root -2.772766 33.213771 -0.586060 7.827370 -5.084807 2.610262
RightUpLeg -2.931169 -4.004221 -2.460761
RightLeg 1.173558 -0.000000 -0.000000
RightFoot -11.136639 -2.139872 2.626633
RightToeBase 5.363487 -0.000000 -0.000000
LeftUpLeg -1.807616 6.465291 0.494265
LeftLeg 2.465634 -0.000000 -0.000000
LeftFoot -10.950278 1.773956 -9.845438
LeftToeBase 7.335239 -0.000000 -0.000000
Spine -10.430619 -5.350759 1.467738
RightShoulder -15.018026 -33.480907 -13.843435
RightArm 35.981138 -60.697162 36.995170
RightForeArm -22.657017 -0.000000 19.443339
RightHand 8.176744 0.000000 9.245689
RightHandThumb1 -24.326973 -0.000000 -32.862282
LeftShoulder -26.789793 -14.374449 53.319671
LeftArm 50.002699 -52.172147 -28.532625
LeftForeArm 12.476172 -0.000000 28.575411
LeftHand 3.442627 -0.000000 13.641238
LeftHandThumb1 -26.253704 0.000000 33.147579
Head 3.421835 7.858159 -8.628063
2268
root -2.776702 33.215226 -0.573098 7.839923 -4.987882 2.616434
RightUpLeg -2.891622 -4.048985 -2.454265
RightLeg 1.160938 -0.000000 -0.000000
RightFoot -11.108060 -2.208538 2.522260
RightToeBase 5.566167 -0.000000 -0.000000
LeftUpLeg -1.812175 6.402818 0.505535
LeftLeg 2.466692 -0.000000 -0.000000
LeftFoot -10.934052 1.732681 -9.869198
LeftToeBase 7.332846 -0.000000 -0.000000
Spine -10.449828 -5.289889 1.469344
RightShoulder -15.161258 -33.738847 -13.522966
RightArm 36.993634 -61.979027 36.050609
RightForeArm -22.984220 0.000000 20.414859
RightHand 7.995418 0.000000 9.610068
RightHandThumb1 -24.326973 -0.000000 -32.862282
LeftShoulder -26.982478 -14.503657 53.593834
LeftArm 50.529376 -52.925429 -29.467512
LeftForeArm 11.784325 -0.000000 30.528210
LeftHand 3.465162 -0.000000 13.998897
LeftHandThumb1 -26.253704 0.000000 33.147579
Head 3.741909 7.584874 -8.824202
2269
root -2.773250 33.216857 -0.561494 7.845610 -4.919639 2.644499
RightUpLeg -2.844462 -4.129942 -2.478900
RightLeg 1.105896 -0.000000 -0.000000
RightFoot -11.130417 -2.188543 2.632970
RightToeBase 5.347079 -0.000000 -0.000000
LeftUpLeg -1.808580 6.354885 0.475893
LeftLeg 2.459770 -0.000000 -0.000000
LeftFoot -10.907457 1.732840 -9.838718
LeftToeBase 7.369174 -0.000000 -0.000000
Spine -10.467125 -5.190235 1.477207
RightShoulder -15.232903 -34.032688 -13.283922
RightArm 37.880979 -63.125276 35.270526
RightForeArm -23.219150 -0.000000 21.517767
RightHand 7.948927 -0.000000 9.921186
RightHandThumb1 -24.326973 -0.000000 -32.862282
LeftShoulder -27.137129 -14.484095 53.722544
LeftArm 51.192736 -53.806969 -30.519048
LeftForeArm 10.991427 -0.000000 32.551245
LeftHand 3.417909 -0.000000 14.546844
LeftHandThumb1 -26.253704 0.000000 33.147579
Head 4.077146 7.449652 -9.025186
2270
root -2.775725 33.218230 -0.548269 7.835089 -4.831769 2.654282
RightUpLeg -2.791351 -4.182549 -2.480264
RightLeg 1.104657 -0.000000 -0.000000
RightFoot -11.150741 -2.202727 2.642047
RightToeBase 5.314359 -0.000000 -0.000000
LeftUpLeg -1.781856 6.293970 0.483959
LeftLeg 2.447997 -0.000000 -0.000000
LeftFoot -10.887006 1.698474 -9.867560
LeftToeBase 7.368479 -0.000000 -0.000000
Spine -10.483585 -5.151198 1.500510
RightShoulder -15.268095 -34.374291 -13.068973
RightArm 39.121737 -64.327895 34.152860
RightForeArm -23.638502 -0.000000 22.745604
RightHand 8.193087 0.000000 10.694223
RightHandThumb1 -24.326973 -0.000000 -32.862282
LeftShoulder -27.287222 -14.504588 53.877672
LeftArm 51.784048 -54.587421 -31.492578
LeftForeArm 10.153660 -0.000000 34.584763
LeftHand 3.447128 -0.000000 15.044097
LeftHandThumb1 -26.253704 0.000000 33.147579
Head 4.443282 7.407194 -9.188891
2271
root -2.777932 33.219213 -0.533790 7.819907 -4.761378 2.673070
RightUpLeg -2.734007 -4.211925 -2.494987
RightLeg 1.101905 -0.000000 -0.000000
RightFoot -11.177931 -2.232123 2.627853
RightToeBase 5.328224 -0.000000 -0.000000
LeftUpLeg -1.745005 6.283755 0.479711
LeftLeg 2.430219 -0.000000 -0.000000
LeftFoot -10.852274 1.637190 -9.874457
LeftToeBase 7.347048 -0.000000 -0.000000
Spine -10.501177 -5.082012 1.502931
RightShoulder -15.266502 -34.661376 -12.897106
RightArm 40.434697 -65.621204 32.964026
RightForeArm -24.117116 -0.000000 24.053044
RightHand 8.289079 -0.000000 10.866007
RightHandThumb1 -24.326973 -0.000000 -32.862282
LeftShoulder -27.422970 -14.429432 53.937776
LeftArm 52.605442 -55.450666 -32.640652
LeftForeArm 9.226906 -0.000000 36.654223
LeftHand 3.543537 -0.000000 15.512123
LeftHandThumb1 -26.253704 0.000000 33.147579
Head 4.837086 7.329085 -9.333091
2272
root -2.778109 33.219986 -0.521686 7.817862 -4.682344 2.685687
RightUpLeg -2.695502 -4.261130 -2.502903
RightLeg 1.102874 -0.000000 -0.000000
RightFoot -11.202771 -2.248084 2.636203
RightToeBase 5.342826 -0.000000 -0.000000
LeftUpLeg -1.725054 6.244865 0.477989
LeftLeg 2.410934 -0.000000 -0.000000
LeftFoot -10.826507 1.608842 -9.859260
LeftToeBase 7.339760 -0.000000 -0.000000
Spine -10.525547 -4.980561 1.528885
RightShoulder -15.293211 -34.969743 -12.737295
RightArm 41.848561 -66.850726 31.676828
RightForeArm -24.640288 -0.000000 25.499915
RightHand 7.877011 -0.000000 10.864109
RightHandThumb1 -24.326973 -0.000000 -32.862282
LeftShoulder -27.537907 -14.374937 54.009364
LeftArm 53.385059 -56.265212 -33.852617
LeftForeArm 8.395083 -0.000000 38.798523
LeftHand 3.606614 -0.000000 15.912997
LeftHandThumb1 -26.253704 0.000000 33.147579
Head 5.223189 7.248750 -9.500318
2273
root -2.780654 33.220945 -0.510830 7.817514 -4.606798 2.686852
RightUpLeg -2.672236 -4.248579 -2.500666
RightLeg 1.140137 -0.000000 -0.000000
RightFoot -11.206947 -2.334663 2.578200
RightToeBase 5.535414 -0.000000 -0.000000
LeftUpLeg -1.712693 6.222203 0.491957
LeftLeg 2.401821 -0.000000 -0.000000
LeftFoot -10.806985 1.547748 -9.894613
LeftToeBase 7.341626 -0.000000 -0.000000
Spine -10.549389 -4.890093 1.563153
RightShoulder -15.331269 -35.320453 -12.566302
RightArm 43.710850 -67.996634 29.948254
RightForeArm -24.701498 -0.000000 27.042753
RightHand 8.257440 -0.000000 11.558998
RightHandThumb1 -24.326973 -0.000000 -32.862282
LeftShoulder -27.669747 -14.340824 54.083585
LeftArm 54.145738 -57.005570 -35.039219
LeftForeArm 7.524966 -0.000000 40.976808
LeftHand 3.795052 -0.000000 16.040221
LeftHandThumb1 -26.253704 0.000000 33.147579
Head 5.612545 7.215525 -9.659928
2274
root -2.785907 33.220797 -0.494184 7.789342 -4.465985 2.703944
RightUpLeg -2.574751 -4.349832 -2.498012
RightLeg 1.113396 -0.000000 -0.000000
RightFoot -11.228452 -2.361713 2.592748
RightToeBase 5.519696 -0.000000 -0.000000
LeftUpLeg -1.672334 6.128891 0.506799
LeftLeg 2.392130 -0.000000 -0.000000
LeftFoot -10.788625 1.495881 -9.881210
LeftToeBase 7.344487 -0.000000 -0.000000
Spine -10.565778 -4.871225 1.567925
RightShoulder -15.366707 -35.704304 -12.397264
RightArm 45.752215 -69.083996 28.054323
RightForeArm -25.095577 -0.000000 28.695804
RightHand 8.732508 -0.000000 11.731453
RightHandThumb1 -24.326973 -0.000000 -32.862282
LeftShoulder -27.774022 -14.305250 54.183828
LeftArm 54.917922 -57.726838 -36.263908
LeftForeArm 6.744366 -0.000000 43.207951
LeftHand 3.948999 0.000000 16.315978
LeftHandThumb1 -26.253704 0.000000 33.147579
Head 6.019022 7.134427 -9.756142
2275
root -2.787817 33.221232 -0.480144 7.773507 -4.341431 2.719432
RightUpLeg -2.514511 -4.393073 -2.502335
RightLeg 1.124458 -0.000000 -0.000000
RightFoot -11.258158 -2.440460 2.590612
RightToeBase 5.467820 -0.000000 -0.000000
LeftUpLeg -1.646871 6.041790 0.511022
LeftLeg 2.382801 -0.000000 -0.000000
LeftFoot -10.766973 1.473824 -9.886187
LeftToeBase 7.340546 -0.000000 -0.000000
Spine -10.587925 -4.816389 1.601576
RightShoulder -15.427023 -36.068111 -12.260755
RightArm 48.145633 -70.174755 25.824566
RightForeArm -25.600298 -0.000000 30.483877
RightHand 8.462525 0.000000 11.582906
RightHandThumb1 -24.326973 -0.000000 -32.862282
LeftShoulder -27.773620 -13.960270 54.019349
LeftArm 55.986131 -58.763465 -37.691559
LeftForeArm 5.775827 0.000000 45.467943
LeftHand 4.184728 -0.000000 16.385779
LeftHandThumb1 -26.253704 0.000000 33.147579
Head 6.401191 7.072889 -9.926634
2276
root -2.791405 33.222078 -0.466808 7.766072 -4.222643 2.731975
RightUpLeg -2.472744 -4.452957 -2.504148
RightLeg 1.152664 -0.000000 -0.000000
RightFoot -11.302387 -2.469139 2.601160
RightToeBase 5.473270 -0.000000 -0.000000
LeftUpLeg -1.633477 5.992200 0.519673
LeftLeg 2.379352 -0.000000 -0.000000
LeftFoot -10.740280 1.407818 -9.865737
LeftToeBase 7.326946 -0.000000 -0.000000
Spine -10.615461 -4.743709 1.608512
RightShoulder -15.522999 -36.474985 -12.028350
RightArm 50.612196 -71.070048 23.509983
RightForeArm -26.163626 0.000000 32.254600
RightHand 8.919510 -0.000000 12.001920
RightHandThumb1 -24.326973 -0.000000 -32.862282
LeftShoulder -27.879575 -14.140208 54.261007
LeftArm 56.180385 -59.205988 -38.470406
LeftForeArm 4.682555 -0.000000 47.842248
LeftHand 4.212634 -0.000000 16.603984
LeftHandThumb1 -26.253704 0.000000 33.147579
Head 6.801732 6.943893 -10.052207
2277
root -2.794777 33.221937 -0.455989 7.769978 -4.094587 2.746868
RightUpLeg -2.447059 -4.529953 -2.503129
RightLeg 1.184488 -0.000000 -0.000000
RightFoot -11.348338 -2.502767 2.610941
RightToeBase 5.446669 -0.000000 -0.000000
LeftUpLeg -1.644911 5.922770 0.525252
LeftLeg 2.394171 -0.000000 -0.000000
LeftFoot -10.731161 1.361446 -9.871039
LeftToeBase 7.353325 -0.000000 -0.000000
Spine -10.645403 -4.691091 1.635904
RightShoulder -15.645777 -36.834367 -11.862353
RightArm 53.419137 -71.903605 20.917014
RightForeArm -26.639876 -0.000000 34.057208
RightHand 9.327707 -0.000000 12.617368
RightHandThumb1 -24.326973 -0.000000 -32.862282
LeftShoulder -28.009703 -14.125969 54.353723
LeftArm 56.903131 -59.787136 -39.674188
LeftForeArm 3.709176 -0.000000 50.101350
LeftHand 4.429976 -0.000000 16.664765
LeftHandThumb1 -26.253704 0.000000 33.147579
Head 7.174688 6.763692 -10.271720
